<?xml version="1.0" encoding="UTF-8" standalone="no"?>
<svg
   xmlns:dc="http://purl.org/dc/elements/1.1/"
   xmlns:cc="http://creativecommons.org/ns#"
   xmlns:rdf="http://www.w3.org/1999/02/22-rdf-syntax-ns#"
   xmlns:svg="http://www.w3.org/2000/svg"
   xmlns="http://www.w3.org/2000/svg"
   viewBox="0 0 243.75 375"
   height="375"
   width="243.75"
   version="1.1"
   id="svg2">
  <metadata
     id="metadata8">
    <rdf:RDF>
      <cc:Work
         rdf:about="">
        <dc:format>image/svg+xml</dc:format>
        <dc:type
           rdf:resource="http://purl.org/dc/dcmitype/StillImage" />
        <dc:title></dc:title>
      </cc:Work>
    </rdf:RDF>
  </metadata>
  <defs
     id="defs6" />
  <path
     id="path4138"
     d="M 17.715315,367.38011 C 16.897815,366.07105 15.382715,365 14.348415,365 c -1.0343,0 -4.1223,-2.10938 -6.8623999,-4.6875 -5.0342,-4.73684 -6.115,-8.317 -3.7784,-12.51696 0.6642,-1.1938 1.8254,-5.38734 2.5805,-9.31899 1.5976,-8.31768 1.0378,-7.62179 20.8994999,-25.98214 8.4219,-7.78527 15.3125,-14.60019 15.3125,-15.14422 0,-0.54405 -2.1565,-4.06772 -4.7923,-7.83038 -6.4971,-9.27488 -14.6792,-30.31226 -17.028,-43.78156 -2.501,-14.34188 -2.436,-16.49188 0.5623,-18.59199 1.3707,-0.96002 2.1581,-2.0795 1.7498,-2.48772 -2.4228,-2.42287 11.4541,-42.27143 20.5516,-59.01503 1.4886,-2.73982 2.7066,-5.99921 2.7066,-7.24311 0,-3.2395 -3.7156,-18.51231 -5.3087,-21.82141 -0.9679,-2.01046 -0.9381,-6.11646 0.1063,-14.61448 2.0069,-16.33095 1.8331,-21.593 -0.9777,-29.590037 -2.5745,-7.325127 -5.0699,-27.318579 -5.0699,-40.621324 0,-6.79159 -0.3935,-8.216564 -2.6386,-9.555056 -2.8762,-1.714681 -7.3614,-10.851851 -7.3614,-14.996235 0,-1.424986 1.4349,-4.4721 3.1886,-6.771369 1.7537,-2.299269 2.7735,-4.180489 2.2661,-4.180489 -0.5073,0 0.6943,-1.6875 2.6703,-3.75 4.3846,-4.5765286 6.875,-4.8029293 6.875,-0.625 0,3.156601 1.7018,4.17771 3.125,1.875 0.9965,-1.61246 9.375,-1.638018 9.375,-0.0286 0,2.05332 19.429,0.247685 27.837,-2.58703 8.8739,-2.9917926 19.1668,-4.343661 23.943605,-3.1447514 2.6788,0.6723248 3.121,1.3420584 2.5055,3.7943054 -0.6399,2.549915 -0.1034,3.210716 3.7333,4.598083 2.4643,0.891118 4.4806,2.069714 4.4806,2.619103 0,1.623731 5.6165,1.160059 18.6412,-1.538938 9.3187,-1.931024 13.065,-2.226852 15.6678,-1.237236 3.3149,1.26032 3.3978,1.522755 2.677,8.475328 -0.4091,3.946105 -0.8827,10.028646 -1.0524,13.516757 -0.352,7.23422 -3.9882,12.109122 -13.003,17.432519 -2.8569,1.687059 -7.0756,5.452572 -9.375,8.367809 -2.2993,2.915237 -7.2069,8.688305 -10.9057,12.829041 -6.7126,7.514709 -12.6499,15.91769 -12.6499,17.903309 0,0.577158 6.081,3.963336 13.5133,7.524841 10.9522,5.24819 14.7502,6.47546 20.0394,6.47546 3.5894,0 9.9217,1.14388 14.0718,2.54196 4.1501,1.39807 11.5855,2.96292 16.5231,3.47744 8.7369,0.91044 9.2578,0.80268 19.4479,-4.02363 8.908,-4.21904 11.6129,-4.93583 18.125,-4.80304 11.8865,0.24238 17.0295,2.05393 17.0295,5.99839 0,0.89925 1.2656,1.81475 2.8125,2.03444 1.5468,0.21969 3.3519,1.62835 4.0112,3.13034 0.6594,1.502 2.5489,3.34606 4.1991,4.09791 2.2087,1.00637 2.8196,2.05792 2.3154,3.98592 -0.4194,1.60363 0.3641,4.03771 2.0209,6.27872 2.3136,3.12933 2.4384,3.82895 0.8609,4.82655 -1.0148,0.6417 -2.8127,1.17534 -3.9955,1.18586 -1.1827,0.01 -5.1613,1.39634 -8.8412,3.07958 -3.68,1.68324 -8.3051,3.35313 -10.278,3.71091 -1.973,0.35776 -4.0692,1.51181 -4.6584,2.56456 -0.723,1.29198 -2.9807,1.91829 -6.9465,1.92703 -3.2315,0.008 -12.2716,1.13212 -20.0891,2.5 -7.8175,1.36788 -16.6437,2.48706 -19.6137,2.48706 -2.9701,0 -5.7477,0.5625 -6.1726,1.25 -1.0354,1.6752 -7.2803,1.59476 -8.9908,-0.11575 -1.7584,-1.75833 -4.7317,-0.17416 -9.9958,5.3257 -3.2111,3.35486 -4.7039,6.91576 -7.6739,18.30519 -2.3334,8.94801 -5.1853,16.52128 -7.7669,20.625 -2.2438,3.5667 -7.1329,11.73693 -10.8646,18.15606 l -6.785,11.67116 10.3051,15.20384 c 11.2046,16.53101 23.1854,32.0788 24.7192,32.0788 0.5306,0 1.9922,2.10937 3.2481,4.6875 1.9107,3.92214 2.3617,8.66429 2.7624,29.0435 0.2634,13.3958 1.0318,26.40945 1.7076,28.91922 1.3855,5.14536 3.334,6.05218 13.0846,6.08968 7.4488,0.0286 14.8485,1.91222 17.3536,4.41732 1.0608,1.06075 1.8307,4.28282 1.8555,7.7654 0.066,9.28838 -0.5543,10.32738 -6.1684,10.32738 -2.8758,0 -4.9157,0.59748 -4.9157,1.43979 0,1.95209 -49.1017,0.63012 -49.7583,-1.33964 -0.2475,-0.74259 -1.1063,-1.35016 -1.9084,-1.35019 -0.8021,-2e-5 -3.0292,-1.96877 -4.9491,-4.375 -2.3038,-2.8873 -4.5458,-4.37496 -6.5935,-4.37496 -2.1259,0 -3.4621,-0.9456 -4.2447,-3.00399 -1.8354,-4.82743 -3.5714,-16.65162 -4.482205,-30.52846 -0.7328,-11.16634 -1.2503,-13.35834 -3.8361,-16.25 -1.6439,-1.8384 -2.6822,-2.45517 -2.3073,-1.37061 1.4039,4.06161 -2.4284,9.63492 -15.0669,21.91127 l -13.0058,12.6332 12.1386,2.9918 c 12.0118,2.96051 12.1499,3.03753 13.2144,7.36679 0.6837,2.78034 0.5522,6.31137 -0.3606,9.6875 -1.2494,4.62069 -1.886,5.3125 -4.8883,5.3125 -1.8985,0 -4.067,0.61514 -4.8188,1.36696 -0.8902,0.8902 -11.7981,1.50235 -31.2742,1.75511 -28.2812,0.36705 -29.988,0.25875 -31.3936,-1.99196 z M 157.50012,110.71603 c -3.0938,-0.81784 -7.2085,-2.15727 -9.1439,-2.9765 -1.9354,-0.81924 -4.326,-1.48953 -5.3125,-1.48953 -0.9865,0 -1.7936,-0.6281 -1.7936,-1.39579 0,-0.78014 -1.1022,-1.10758 -2.4988,-0.74235 -1.3743,0.35939 -2.762,0.22742 -3.0838,-0.29327 -1.01,-1.63417 35.991,-36.114675 40.5738,-37.80997 1.5514,-0.573905 9.3168,-2.206491 17.2564,-3.627971 15.5495,-2.783922 20.2524,-2.206084 20.2524,2.488386 0,1.332448 0.7031,2.680444 1.5625,2.995549 1.2345,0.452657 1.2407,0.91433 0.03,2.199424 -1.1342,1.203532 -1.1706,2.062924 -0.14,3.304697 1.0473,1.261966 0.885,2.239328 -0.6548,3.940667 -1.1261,1.244364 -2.0475,3.138265 -2.0475,4.20867 0,7.114803 -10.7776,14.300882 -23.4572,15.640417 -6.3121,0.666836 -6.6783,0.912377 -8.9209,5.982151 -2.632,5.95011 -4.9237,7.95251 -6.3887,5.58213 -0.7592,-1.22841 -1.7768,-0.97658 -4.4038,1.08986 -3.7986,2.98791 -3.9115,2.99653 -11.8294,0.90343 z"
     style="fill:#ffcc00" />
</svg>
