<?xml version="1.0" encoding="UTF-8" standalone="no"?>
<!-- Created with Inkscape (http://www.inkscape.org/) -->
<svg
   xmlns:dc="http://purl.org/dc/elements/1.1/"
   xmlns:cc="http://creativecommons.org/ns#"
   xmlns:rdf="http://www.w3.org/1999/02/22-rdf-syntax-ns#"
   xmlns:svg="http://www.w3.org/2000/svg"
   xmlns="http://www.w3.org/2000/svg"
   xmlns:sodipodi="http://sodipodi.sourceforge.net/DTD/sodipodi-0.dtd"
   xmlns:inkscape="http://www.inkscape.org/namespaces/inkscape"
   width="800"
   height="411.80157"
   id="svg2"
   sodipodi:version="0.32"
   inkscape:version="0.46"
   version="1.0"
   sodipodi:docname="Lion_of_Venice.svg"
   inkscape:output_extension="org.inkscape.output.svg.inkscape">
  <defs
     id="defs4">
    <inkscape:perspective
       sodipodi:type="inkscape:persp3d"
       inkscape:vp_x="0 : 205.90079 : 1"
       inkscape:vp_y="0 : 1000 : 0"
       inkscape:vp_z="800 : 205.90079 : 1"
       inkscape:persp3d-origin="400 : 137.26719 : 1"
       id="perspective9" />
  </defs>
  <sodipodi:namedview
     id="base"
     pagecolor="#ffa500"
     bordercolor="#666666"
     borderopacity="1.0"
     gridtolerance="10000"
     guidetolerance="10"
     objecttolerance="10"
     inkscape:pageopacity="1"
     inkscape:pageshadow="2"
     inkscape:zoom="1.055"
     inkscape:cx="232.22749"
     inkscape:cy="205.90079"
     inkscape:document-units="px"
     inkscape:current-layer="layer1"
     showgrid="false"
     inkscape:window-width="1274"
     inkscape:window-height="967"
     inkscape:window-x="0"
     inkscape:window-y="0" />
  <metadata
     id="metadata7">
    <rdf:RDF>
      <cc:Work
         rdf:about="">
        <dc:format>image/svg+xml</dc:format>
        <dc:type
           rdf:resource="http://purl.org/dc/dcmitype/StillImage" />
        <dc:title>Lion of Venice</dc:title>
        <dc:date>2008-11-26</dc:date>
        <dc:creator>
          <cc:Agent>
            <dc:title>http://commons.wikimedia.org/wiki/User:Tryphon</dc:title>
          </cc:Agent>
        </dc:creator>
        <cc:license
           rdf:resource="http://creativecommons.org/licenses/by-sa/3.0/" />
        <dc:subject>
          <rdf:Bag>
            <rdf:li>Lion</rdf:li>
            <rdf:li>Venice</rdf:li>
            <rdf:li>Statue</rdf:li>
          </rdf:Bag>
        </dc:subject>
      </cc:Work>
      <cc:License
         rdf:about="http://creativecommons.org/licenses/by-sa/3.0/">
        <cc:permits
           rdf:resource="http://creativecommons.org/ns#Reproduction" />
        <cc:permits
           rdf:resource="http://creativecommons.org/ns#Distribution" />
        <cc:requires
           rdf:resource="http://creativecommons.org/ns#Notice" />
        <cc:requires
           rdf:resource="http://creativecommons.org/ns#Attribution" />
        <cc:permits
           rdf:resource="http://creativecommons.org/ns#DerivativeWorks" />
        <cc:requires
           rdf:resource="http://creativecommons.org/ns#ShareAlike" />
      </cc:License>
    </rdf:RDF>
  </metadata>
  <g
     inkscape:label="Layer 1"
     inkscape:groupmode="layer"
     id="layer1"
     transform="translate(1073.0625,-665.04224)">
    <rect
       style="fill:#ffa500;fill-opacity:1;stroke:none;stroke-width:1;stroke-miterlimit:4;stroke-dasharray:none;stroke-opacity:1"
       id="rect2565"
       width="800"
       height="411.79999"
       x="-1073.0625"
       y="665.04303" />
    <path
       style="fill:#000000"
       d="M -625.83027,690.77986 L -627.07541,691.91827 L -628.32054,693.05668 L -629.05576,693.05668 L -629.80285,693.05668 L -631.22586,694.10023 C -632.01136,694.67418 -633.84888,696.10366 -635.30517,697.2783 C -641.69815,702.43483 -654.50234,710.65227 -660.52811,713.46509 C -669.49337,717.65005 -669.49394,717.64842 -677.03508,720.36671 C -678.07863,720.74287 -682.09152,721.9142 -685.95265,722.96372 L -692.97285,724.87293 L -695.05993,725.1101 C -696.20784,725.23825 -699.70845,725.88562 -702.83908,726.55683 L -708.53114,727.77825 L -711.75665,727.67152 L -714.98215,727.55294 L -718.20764,727.96798 C -719.98167,728.19796 -722.73028,728.56914 -724.31475,728.78622 C -725.89927,729.00329 -728.28994,729.25689 -729.62734,729.34356 C -735.02743,729.69354 -739.37,730.13937 -739.79004,730.39896 L -740.22881,730.67171 L -740.01535,731.02746 L -739.79004,731.38322 L -740.28809,731.40694 C -741.69604,731.47997 -743.98365,731.73619 -745.24493,731.96428 L -746.65609,732.22517 L -746.47821,732.52163 L -746.30034,732.81809 L -747.07113,733.01969 L -747.85379,733.22128 L -748.92105,733.58889 L -750.85398,734.00394 C -751.91274,734.231 -753.18897,734.41898 -753.68816,734.41898 L -754.58939,734.41898 L -757.0441,734.88146 L -758.40782,735.36766 C -759.15428,735.6353 -761.24285,736.54909 -763.05633,737.40731 C -764.86978,738.26555 -766.60871,738.97264 -766.92219,738.97264 C -767.23571,738.97264 -767.58923,739.12943 -767.70485,739.31653 C -767.82047,739.50362 -768.6023,740.00843 -769.43619,740.44308 C -773.24247,742.42703 -778.98424,746.37119 -782.14845,749.1709 C -783.90597,750.72597 -785.58317,752.86414 -786.95112,755.28987 C -787.48076,756.22906 -788.64855,758.19416 -789.54813,759.65378 L -791.18459,762.31008 L -792.25185,765.34584 L -793.30726,768.39347 L -793.55629,771.42923 L -793.79346,774.45314 L -793.1531,776.35049 C -792.24073,779.03821 -789.76182,784.03185 -788.39786,785.92026 L -787.23573,787.52116 L -784.37784,790.09445 C -782.80357,791.50907 -779.35368,794.80225 -776.71728,797.41111 L -771.92646,802.15449 L -770.68132,804.73964 C -769.99945,806.16073 -768.93336,808.9783 -768.30963,811.0009 L -767.17122,814.67703 L -766.55457,818.282 L -765.93793,821.88696 L -766.13953,827.57902 L -766.32927,833.27108 L -767.11193,835.87995 C -767.99313,838.8294 -769.43734,842.0387 -771.98576,846.71857 L -773.72894,849.92036 L -774.01355,849.16142 L -774.29815,848.40247 L -775.24683,847.77398 L -776.20737,847.14548 L -776.4801,846.27981 C -777.0659,844.39977 -780.87058,840.23137 -786.41749,835.39375 L -789.54813,832.65444 L -790.12919,831.53975 L -790.6984,830.43692 L -790.48495,829.55939 L -790.25964,828.69372 L -790.63911,827.7569 L -791.01857,826.82009 L -793.22425,824.64998 C -794.43898,823.45857 -796.33992,821.61021 -797.44586,820.5351 C -798.55179,819.45999 -799.69886,818.19532 -800.00728,817.72465 L -800.5765,816.87084 L -800.18517,815.83915 C -799.97092,815.27562 -799.79383,814.33646 -799.79383,813.75206 L -799.79383,812.69666 L -800.58835,811.68869 C -801.02512,811.13342 -802.73275,809.64831 -804.38306,808.39204 L -807.38324,806.10335 L -807.38324,805.24955 L -807.38324,804.38389 L -808.32007,803.11503 L -809.26874,801.83432 L -809.17388,799.85395 L -809.09086,797.87359 L -809.77866,797.10279 C -810.15927,796.68211 -810.84231,796.24323 -811.29654,796.11854 L -812.12663,795.89323 L -813.26504,794.28048 C -813.89117,793.39815 -814.57422,792.31686 -814.78292,791.87321 C -815.12464,791.14685 -817.17321,788.57498 -818.83852,786.77407 L -819.46702,786.08629 L -819.27728,785.3392 L -819.07569,784.60398 L -819.65675,783.513 L -820.22595,782.42202 L -823.13127,779.58785 L -826.0366,776.76554 L -827.70865,774.35826 C -828.63311,773.0358 -829.39255,771.79336 -829.39255,771.59525 C -829.39255,771.39714 -829.98616,770.58081 -830.70883,769.7809 L -832.02512,768.32231 L -832.76035,766.63841 L -833.50743,764.96637 L -834.76442,763.60264 L -836.03328,762.23893 L -838.87931,760.36529 C -842.18902,758.182 -842.32876,758.1175 -847.73757,756.2504 L -851.8406,754.83925 L -852.76557,755.00526 L -853.69052,755.18315 L -855.70647,754.72067 C -856.81281,754.46349 -858.09282,754.05354 -858.55249,753.80756 C -859.01211,753.56158 -860.71026,753.01596 -862.32348,752.598 L -865.25252,751.83905 L -867.52934,751.69676 C -868.7816,751.62035 -870.27576,751.65697 -870.84972,751.76791 L -871.89326,751.9695 L -871.89326,752.44384 L -871.89326,752.93003 L -873.2214,753.17906 C -874.60188,753.43805 -876.51013,754.25292 -878.66443,755.50332 L -879.93329,756.23854 L -881.41559,759.3336 C -882.2315,761.03456 -882.89789,762.61411 -882.8979,762.84371 L -882.8979,763.25875 L -883.97702,763.25875 L -885.068,763.25875 L -886.09969,764.21929 L -887.13137,765.16796 L -887.01279,766.5554 L -886.8942,767.93099 L -887.51084,768.1563 C -887.8537,768.28082 -888.94978,769.06772 -889.94183,769.89949 L -891.74431,771.40551 L -892.6337,771.28693 L -893.52308,771.16834 L -893.52308,771.58339 L -893.52308,771.98658 L -894.29388,771.98658 L -895.07654,771.98658 L -896.28611,772.82853 C -896.95594,773.29437 -897.87888,773.99865 -898.33762,774.39384 L -899.17957,775.11721 L -899.40488,776.16076 L -899.63019,777.2043 L -900.66188,777.12129 C -901.22471,777.07545 -901.97893,776.91451 -902.34578,776.75368 L -903.00985,776.45721 L -904.0534,777.12129 C -904.62575,777.48778 -905.60352,778.38797 -906.22349,779.12537 L -907.35004,780.47723 L -907.25518,781.63936 C -907.19902,782.28026 -906.91585,783.56992 -906.62667,784.50911 C -906.33748,785.4483 -905.90217,786.89977 -905.66614,787.73461 C -905.43015,788.56944 -905.16247,789.42326 -905.07322,789.63196 L -904.90721,790.01143 L -906.33022,790.94825 C -907.11132,791.46608 -908.35089,792.34583 -909.08138,792.89304 L -910.40953,793.88915 L -912.74564,794.70739 L -915.09361,795.53748 L -916.24389,796.6166 C -916.87965,797.21048 -917.96598,797.96949 -918.65115,798.3005 L -919.89629,798.89342 L -920.71452,800.15042 C -921.16492,800.83782 -921.84419,802.28208 -922.22055,803.36405 L -922.90834,805.33256 L -922.06639,807.36035 L -921.22444,809.37629 L -921.22444,810.2301 L -921.22444,811.07205 L -922.36285,811.07205 L -923.50126,811.07205 L -923.50126,811.7717 C -923.50126,812.57565 -922.48811,814.74174 -921.95967,815.06835 C -921.76416,815.18917 -921.6039,815.5882 -921.60391,815.94588 L -921.60391,816.5981 L -920.34691,818.5073 C -919.6532,819.56067 -918.97545,820.70622 -918.84089,821.05687 L -918.59187,821.69723 L -917.82106,821.69723 L -917.05026,821.69723 L -917.05026,822.04113 L -917.05026,822.38502 L -916.37433,822.20715 L -915.68654,822.02927 L -914.85644,823.87919 L -914.01449,825.74096 L -914.01449,826.77265 L -914.01449,827.80433 L -914.59557,828.93089 L -915.17663,830.05745 L -913.55202,832.12082 C -912.6573,833.25346 -911.57763,834.74143 -911.15661,835.42932 L -910.39767,836.68632 L -909.25926,837.23181 C -908.63673,837.53487 -907.17848,837.96068 -906.01003,838.18049 L -903.88738,838.58367 L -900.03338,842.829 L -896.17938,847.07433 L -895.40858,847.3115 L -894.63777,847.56052 L -893.77211,848.95983 L -892.9183,850.34726 L -893.04874,852.05488 C -893.11705,852.99407 -893.21331,856.80744 -893.2622,860.52182 L -893.34521,867.26929 L -893.84326,867.5776 L -894.35318,867.88593 L -894.22273,868.7753 L -894.09229,869.65283 L -892.87087,869.97301 L -891.64945,870.28133 L -892.89459,872.27355 L -894.13972,874.25391 L -895.20699,877.09995 C -895.79285,878.66526 -896.4916,880.54363 -896.76044,881.27412 L -897.24664,882.60227 L -897.12806,884.48777 L -897.00947,886.37326 L -896.49956,886.52742 C -896.21966,886.6125 -895.60542,887.03701 -895.13583,887.46424 L -894.28202,888.23504 L -894.28202,889.07699 C -894.28202,889.99377 -894.89487,891.55557 -895.83548,893.03771 C -896.1666,893.55949 -897.14923,895.19288 -898.01743,896.6664 L -899.59461,899.34641 L -899.59461,901.05403 L -899.59461,902.76165 L -899.06098,904.63528 L -898.52735,906.50892 L -898.26646,910.4815 L -898.00558,914.45408 L -897.29407,916.36329 C -896.90303,917.41352 -896.319,919.51804 -896.0015,921.03553 L -895.4323,923.78669 L -894.8038,924.74722 L -894.1753,925.70776 L -894.10415,929.96494 L -894.04485,934.21027 L -893.16732,936.10763 C -892.68768,937.15117 -891.63061,939.42976 -890.81936,941.17119 L -889.34891,944.3374 L -887.27368,947.46803 C -886.12923,949.18802 -884.7332,951.07936 -884.17862,951.67778 C -883.62403,952.27621 -882.80905,953.55194 -882.36428,954.51196 C -881.33591,956.73152 -879.61044,958.93094 -875.4508,963.34651 L -875.02389,963.79713 L -875.64053,964.73394 C -875.97807,965.24984 -876.73978,966.19834 -877.33629,966.83289 C -877.93274,967.46744 -880.01686,969.94691 -881.96109,972.34707 C -883.9053,974.74723 -886.19874,977.47246 -887.06022,978.40674 C -889.64339,981.20826 -894.46881,986.11345 -896.04894,987.53776 C -896.86309,988.27161 -897.79054,989.2485 -898.11231,989.70785 C -898.43402,990.16716 -899.36753,991.06414 -900.18753,991.71194 C -901.00753,992.3597 -902.44714,993.51733 -903.37746,994.28522 C -906.88165,997.17758 -910.84143,1000.4834 -912.30687,1001.7323 C -914.87184,1003.9184 -915.6685,1004.479 -917.24,1005.2187 L -919.89629,1008.2426 L -922.65931,1010.8633 L -925.43419,1013.4841 L -926.83349,1013.9703 C -927.60642,1014.2417 -929.12341,1014.5736 -930.20129,1014.7055 L -932.1698,1014.9426 L -933.42679,1014.492 L -934.69565,1014.0295 L -938.86982,1013.8635 L -943.044,1013.7094 L -943.99268,1014.16 C -944.51445,1014.413 -945.31603,1014.948 -945.77144,1015.3459 C -946.22685,1015.7436 -947.34866,1016.6117 -948.27358,1017.2669 C -949.19849,1017.9222 -951.26901,1019.4382 -952.86281,1020.6466 L -955.75627,1022.8522 L -955.75627,1023.374 C -955.75627,1023.6629 -956.14303,1024.385 -956.62194,1024.9749 C -957.10082,1025.5649 -957.81372,1026.7611 -958.19911,1027.6431 L -958.89876,1029.2558 L -958.68531,1031.4378 L -958.47185,1033.6315 L -957.67734,1035.2325 L -956.89468,1036.8215 L -956.89468,1037.5805 L -956.89468,1038.3394 L -958.12796,1038.5409 C -960.36446,1038.9002 -971.39604,1039.4912 -977.3031,1039.5726 C -980.4952,1039.6167 -984.1665,1039.7832 -985.4617,1039.9402 C -986.7568,1040.0974 -988.6753,1040.259 -989.7189,1040.296 C -990.7624,1040.3331 -991.9981,1040.4453 -992.4582,1040.545 L -993.2883,1040.723 L -993.7152,1042.1104 C -993.9479,1042.8727 -994.3126,1043.8744 -994.5334,1044.3279 L -994.9366,1045.1461 L -994.6876,1046.1304 L -994.4504,1047.1027 L -994.9841,1047.1027 L -995.5177,1047.1027 L -995.7549,1048.3716 L -995.992,1049.6405 L -996.8458,1050.02 L -997.6878,1050.3994 L -1002.9766,1050.4824 C -1005.8853,1050.5275 -1008.3697,1050.6255 -1008.5027,1050.7078 C -1008.6357,1050.7899 -1010.6952,1050.8834 -1013.0801,1050.9094 C -1020.2081,1050.9868 -1044.2646,1051.9861 -1045.6078,1052.2612 L -1046.8529,1052.5221 L -1047.1968,1053.1625 C -1047.3862,1053.5162 -1047.6598,1054.6793 -1047.8016,1055.7476 L -1048.0625,1057.6924 L -1047.8135,1058.9375 L -1047.5644,1060.1945 L -1046.0821,1060.8823 L -1044.5998,1061.5582 L -1044.3627,1062.6729 L -1044.1137,1063.7876 L -1043.0938,1064.5228 L -1042.0621,1065.2462 L -1040.4019,1065.3885 L -1038.7299,1065.5308 L -1037.8998,1067.0013 L -1037.0816,1068.4598 L -1036.1685,1069.124 C -1035.6659,1069.484 -1034.1454,1070.3331 -1032.7888,1071.0213 C -1031.4322,1071.7094 -1028.7034,1073.2247 -1026.7291,1074.389 L -1023.1479,1076.5117 L -1022.804,1076.8438 L -499.72743,1076.8438 C -502.23892,1075.2455 -505.71332,1073.2499 -509.06004,1071.4956 L -512.21439,1069.8354 L -513.4358,1068.614 L -514.65722,1067.4045 L -517.18308,1066.5151 C -518.57676,1066.025 -521.54166,1064.6903 -523.76452,1063.5504 L -527.80826,1061.4753 L -530.83216,1059.3644 L -533.85607,1057.2417 L -534.0458,1056.7319 L -534.23554,1056.2338 L -535.62297,1055.9729 C -538.56577,1055.4208 -545.16904,1052.7209 -545.16904,1052.0715 L -545.16904,1051.7513 L -543.98319,1051.2532 L -542.78548,1050.7671 L -542.02654,1049.0476 L -541.26761,1047.3162 L -541.19645,1044.2686 L -541.13716,1041.221 L -539.9276,1038.8612 L -538.71804,1036.5013 L -538.71804,1035.6001 C -538.71804,1034.4149 -537.98763,1032.2733 -537.31873,1031.497 L -536.78511,1030.8804 L -536.57166,1029.5285 L -536.34634,1028.1767 L -536.58351,1027.228 C -536.71363,1026.7095 -537.04453,1026.0568 -537.31873,1025.7813 C -537.59294,1025.5058 -538.25372,1024.5148 -538.78918,1023.5756 L -539.76158,1021.868 L -539.98689,1020.1485 L -540.20035,1018.4172 L -540.68654,1017.4804 C -540.95729,1016.9649 -541.5476,1016.0402 -541.99097,1015.4169 L -542.79734,1014.2785 L -543.22425,1012.2626 L -543.65115,1010.2467 L -543.41398,1006.5706 L -543.17682,1002.8944 L -543.59187,1001.4121 L -543.99505,999.94171 L -543.61558,999.21834 L -543.22425,998.49498 L -543.02265,995.94541 L -542.8092,993.4077 L -543.40213,991.72379 L -543.99505,990.02803 L -543.60372,989.55369 C -543.38898,989.29493 -542.97357,988.18276 -542.67876,987.07528 L -542.14513,985.05935 L -542.13328,982.85367 L -542.13328,980.65985 L -541.57592,979.58074 C -541.27048,978.99008 -540.75668,977.76538 -540.43752,976.85329 L -539.85644,975.1931 L -540.0699,970.63946 L -540.28335,966.08581 L -540.86442,964.18846 L -541.44548,962.2911 L -542.13328,961.53216 C -542.51255,961.11474 -543.08958,960.12574 -543.41398,959.33835 L -543.99505,957.91534 L -545.15718,957.25126 L -546.31931,956.59904 L -546.68692,955.27089 C -546.89225,954.54041 -547.06526,953.64689 -547.06639,953.29054 L -547.06639,952.65018 L -548.39454,951.58292 L -549.72268,950.52752 L -549.72268,948.87919 L -549.72268,947.23086 L -551.01525,945.93829 L -552.30783,944.64572 L -552.56871,942.78394 L -552.81774,940.93402 L -551.88092,940.04464 L -550.93225,939.14339 L -549.59224,935.34869 C -548.85193,933.2616 -547.89882,930.27326 -547.48143,928.70795 L -546.7225,925.86192 L -546.35488,922.03164 L -545.99913,918.20135 L -546.33117,912.88877 L -546.6632,907.57618 L -547.39842,904.00678 C -547.80556,902.04406 -548.22657,899.80506 -548.33524,899.02624 L -548.53684,897.60321 L -548.2048,897.40162 L -547.87276,897.20003 L -545.34691,898.58747 L -542.83292,899.97491 L -541.6115,900.97102 C -540.43815,901.98625 -539.87895,902.52522 -538.21998,903.23599 L -536.44122,904.45741 L -535.80086,904.82502 L -534.47271,906.04644 C -533.74056,906.71705 -533.03818,907.26785 -532.91925,907.26786 C -532.80028,907.26786 -532.01023,907.78014 -531.1642,908.40627 L -529.63446,909.54469 L -528.63835,910.4815 C -528.23304,910.78591 -527.25865,911.6824 -526.46825,912.47373 C -525.67785,913.26504 -524.90942,913.91351 -524.76063,913.92046 C -524.61184,913.92739 -524.0967,914.25995 -523.62222,914.65568 L -522.75656,915.37905 L -521.73672,916.37515 L -518.48751,919.60066 C -516.69591,921.37468 -514.11324,923.82125 -512.74801,925.04369 L -510.25774,927.27307 L -509.67667,927.94901 C -509.53938,927.94901 -508.92953,928.47566 -508.32481,929.12299 L -507.22197,930.30884 L -506.71206,930.79504 L -505.70409,931.93345 L -504.73169,933.07187 C -504.19748,933.69799 -502.3883,935.60717 -500.71168,937.3172 L -497.37945,940.8273 L -496.08688,942.26217 C -495.37249,943.05294 -494.72702,943.84997 -494.652,944.02908 C -494.57698,944.2082 -493.2702,945.57428 -491.75854,947.06484 L -488.69907,950.33778 L -487.66737,951.57106 C -487.10097,952.24993 -485.56557,953.96005 -484.25214,955.36577 C -482.93872,956.77147 -481.50626,958.362 -481.07408,958.91144 C -480.64189,959.46088 -479.55662,960.73385 -478.6668,961.73375 C -477.77698,962.73363 -476.62715,964.1175 -476.10538,964.8051 C -475.58361,965.4927 -474.85786,966.3143 -474.49263,966.6313 L -473.55582,967.81715 L -471.51615,970.36671 C -470.38951,971.76575 -468.06073,974.59449 -466.34587,976.66355 L -463.14409,980.76658 L -461.93453,982.15401 C -461.26715,982.91869 -460.05377,984.3752 -459.24266,985.39138 C -458.43153,986.4076 -457.35777,987.64387 -456.8591,988.14254 C -455.79085,989.42067 -455.27668,990.05513 -454.03679,991.27317 C -453.72146,991.63727 -450.87726,995.17231 -448.21429,998.07993 L -446.31693,1000.1551 L -445.67658,1000.7243 L -444.384,1001.9813 L -442.71196,1003.7957 L -440.82647,1005.4203 L -438.72752,1007.46 L -437.82628,1008.2189 C -437.33054,1008.6319 -435.75099,1009.9766 -434.31617,1011.2072 L -431.22112,1014.1126 L -429.27633,1015.7135 C -428.21013,1016.5952 -427.12118,1017.4851 -426.84535,1017.6938 C -426.56951,1017.9025 -426.04999,1018.3294 -425.69508,1018.6425 C -424.21917,1019.9444 -416.19014,1025.862 -414.33467,1027.0146 L -410.89572,1029.2202 C -409.43552,1030.256 -406.17582,1032.0071 -399.07284,1035.5526 C -393.37292,1038.3979 -381.36998,1044.067 -381.04798,1044.067 C -380.97482,1044.067 -377.95034,1045.5149 -374.33609,1047.2807 C -367.30121,1050.7177 -362.65816,1053.4411 -361.11392,1055.0361 C -359.66119,1056.5365 -355.40622,1058.9632 -350.03812,1061.3566 L -345.19987,1063.5149 L -343.33809,1064.4755 C -343.20881,1064.6799 -342.30039,1065.1171 -341.32215,1065.4478 L -339.54339,1066.0526 L -328.98936,1065.9933 C -323.18456,1065.9621 -316.47158,1065.9652 -314.07142,1066.0052 L -309.70751,1066.0881 L -308.8537,1066.5269 C -308.3841,1066.7691 -307.9999,1067.0952 -307.99989,1067.2622 L -307.08679,1067.7839 L -306.86147,1068.7326 L -306.63616,1069.6813 L -305.07085,1070.2267 L -303.49367,1070.7841 L -302.08252,1070.037 C -301.30122,1069.631 -300.18127,1068.8143 -299.6041,1068.2226 L -298.56056,1067.1554 L -298.31153,1066.017 L -298.0625,1064.8786 L -298.32339,1063.503 C -298.70562,1061.4655 -299.42775,1060.2618 -301.64375,1058.0244 L -303.63598,1056.0203 L -305.15385,1055.297 C -305.9887,1054.9023 -306.95164,1054.451 -307.28838,1054.289 C -308.0611,1053.9173 -314.33018,1052.7482 -317.15461,1052.4509 L -319.28914,1052.2256 L -320.58171,1050.518 L -321.87428,1048.8104 L -324.2104,1047.0435 L -326.53466,1045.2766 L -328.18298,1045.0039 L -329.81945,1044.7311 L -332.39274,1043.4385 L -334.97787,1042.1459 L -339.41294,1041.0549 C -347.84801,1038.9865 -353.73954,1037.6851 -357.5208,1037.0468 L -361.31551,1036.4064 L -365.29995,1035.0902 C -370.72964,1033.3093 -375.57663,1031.1783 -386.74004,1025.6271 C -399.84492,1019.1106 -404.8507,1016.114 -410.12492,1011.646 C -410.87999,1011.0064 -412.58368,1009.63 -413.90777,1008.5865 C -417.58557,1005.688 -428.37023,995.17647 -430.86537,992.05583 C -431.43552,991.34273 -432.84412,989.72769 -433.996,988.47457 C -435.14788,987.22145 -436.94257,985.17318 -437.9923,983.92093 C -439.78283,981.78493 -441.06296,980.18515 -447.91782,971.46955 C -449.42421,969.55425 -451.3367,967.12935 -452.16315,966.08581 C -454.29263,963.39695 -457.96498,958.66472 -461.47204,954.08505 C -463.1276,951.92316 -464.57855,950.06266 -464.69755,949.9583 C -464.81658,949.85395 -465.67632,948.74399 -466.60676,947.49175 C -467.53722,946.23949 -469.15994,944.26441 -470.21173,943.10412 C -471.26351,941.94383 -473.48703,939.2356 -475.1567,937.08002 C -476.82638,934.92443 -478.87551,932.36295 -479.71035,931.38796 C -480.54519,930.41297 -481.99666,928.61404 -482.93585,927.39166 C -483.87504,926.16928 -485.58266,924.10236 -486.73056,922.80244 C -487.87845,921.50253 -489.75683,919.29175 -490.90473,917.88118 C -493.31711,914.9168 -503.26608,904.60318 -512.00093,896.01418 L -518.03688,890.07309 L -522.30593,886.59857 C -524.65436,884.68683 -528.24036,882.00929 -530.27481,880.64562 L -533.97465,878.16721 L -538.5283,875.93781 C -543.59533,873.45718 -548.01327,871.81533 -553.24465,870.48292 L -556.74289,869.59354 L -563.08717,867.07954 L -569.41958,864.55369 L -572.30119,863.81847 C -573.88434,863.41357 -577.02953,862.40747 -579.28582,861.57723 L -583.38884,860.05934 L -585.99771,859.63244 C -587.43673,859.39345 -590.24356,858.86525 -592.23525,858.45845 C -598.05868,857.26899 -602.68707,856.62103 -608.16117,856.24092 L -613.28401,855.88517 L -617.45819,856.41879 C -619.75399,856.71314 -623.55443,857.29158 -625.90141,857.69951 L -630.17046,858.44659 L -633.62127,859.63244 C -637.91657,861.11956 -642.28332,863.24239 -644.82751,865.07547 L -646.76044,866.47476 L -648.42062,867.05583 C -649.33173,867.37729 -652.3446,868.06099 -655.12065,868.57371 C -657.89675,869.08643 -660.8928,869.66666 -661.77325,869.86628 C -662.65374,870.06592 -665.12517,870.50242 -667.26372,870.83868 L -671.15329,871.45532 L -671.49718,871.24187 L -671.85294,871.02842 L -672.01896,871.50275 L -672.18497,871.97709 L -672.46958,871.7162 L -672.76603,871.44346 L -672.51702,870.11531 L -672.26799,868.79902 L -671.56833,868.57371 L -670.88054,868.36026 L -670.52479,867.12698 L -670.1809,865.90556 L -669.17293,865.41936 L -668.17681,864.94503 L -667.5246,863.00024 C -667.1698,861.93204 -666.77731,860.19308 -666.64707,859.13438 L -666.40991,857.21331 L -665.22406,856.96429 L -664.02636,856.72712 L -662.8168,855.86145 L -661.61908,855.00764 L -661.26333,854.08267 L -660.90758,853.15772 L -660.43324,853.26444 L -659.9589,853.38303 L -659.82846,853.00355 C -659.75728,852.79627 -659.44131,852.02643 -659.12881,851.29594 C -658.81632,850.56546 -658.45124,849.19937 -658.31058,848.26018 L -658.04969,846.55256 L -657.49235,846.55256 L -656.92314,846.55256 L -656.3065,845.79362 C -655.96994,845.3762 -655.57403,844.62197 -655.41712,844.12158 L -655.13251,843.22033 L -653.86365,841.95148 L -652.5948,840.68262 L -652.20347,839.25961 C -651.98502,838.47301 -651.80233,837.56859 -651.80028,837.25552 C -651.79539,836.50537 -650.14119,833.27215 -649.36931,832.50029 C -649.03526,832.16624 -648.76453,831.97301 -648.76453,832.07338 C -648.76453,832.17375 -647.90831,832.03098 -646.85531,831.7532 L -644.93424,831.24329 L -643.64167,830.81639 L -642.12378,830.74523 L -639.68095,830.21161 L -637.0958,829.73726 C -635.67214,829.47396 -633.40546,828.90838 -632.05595,828.48027 C -630.70648,828.05214 -629.43049,827.66594 -629.22178,827.62646 C -629.01308,827.58698 -628.67155,827.45287 -628.46284,827.33 C -628.03047,827.07545 -624.04468,825.7172 -623.66017,825.69353 L -621.02758,824.3891 C -618.59617,823.47059 -618.20867,823.30448 -614.87305,821.74466 L -611.52897,820.17935 L -609.48931,819.37297 L -607.81726,818.79191 L -605.86063,817.77208 L -603.91584,816.76412 L -602.0422,815.5427 L -600.48874,814.428 L -599.59935,814.15525 L -598.47281,813.7402 C -597.85378,813.51096 -596.49244,812.90361 -595.4489,812.4002 L -591.4526,810.574 C -590.48724,809.82774 -589.36852,809.51378 -588.40497,808.77151 L -586.22302,807.11133 C -585.81531,806.98192 -585.13566,806.58098 -584.71699,806.22195 C -584.29832,805.8629 -583.32253,805.06934 -582.54689,804.45503 L -581.13574,803.34034 L -579.8906,801.49042 L -578.65732,799.6405 L -576.75997,798.05147 C -575.71964,797.17739 -573.91367,795.69401 -572.75181,794.75481 L -570.641,793.0472 L -570.16666,791.90879 C -569.90384,791.28266 -569.58925,790.685 -569.46702,790.58064 C -569.13942,790.30091 -566.9496,785.30445 -566.43125,783.6553 L -565.35213,782.23229 L -564.97266,781.12945 C -564.76221,780.52564 -563.79545,778.9461 -562.82628,777.61935 C -561.85711,776.29259 -560.47541,774.01675 -559.75494,772.55578 L -558.45051,769.89949 L -558.04732,767.74125 L -557.65599,765.57115 L -556.41086,763.50778 L -555.16572,761.43255 L -554.34748,758.95414 C -553.89895,757.58779 -552.91992,753.68687 -552.16553,750.2856 L -550.78994,744.09548 L -550.57649,739.44697 L -550.3749,734.78659 L -551.03897,733.30429 L -551.70305,731.82199 L -554.56093,730.45826 L -557.40697,729.08268 L -558.97228,727.82569 C -559.83372,727.13448 -560.85363,726.45679 -561.23725,726.31966 L -561.93689,726.07063 L -563.97655,726.66355 C -565.10221,726.99079 -566.13039,727.4251 -566.25338,727.62409 C -566.5659,728.12975 -570.06548,729.86534 -570.77144,729.86534 L -571.35251,730.1618 C -571.35251,730.32127 -572.04861,730.74417 -572.89411,731.11047 L -574.42385,731.77455 L -578.56245,735.88943 L -582.70106,739.99246 L -585.27434,741.55777 C -586.69352,742.41664 -590.76243,744.57438 -594.31048,746.34859 L -600.76149,749.57409 L -601.72202,750.47534 L -602.68256,751.36472 L -603.99884,751.59003 C -604.72386,751.71152 -605.61397,751.93179 -605.97921,752.07622 L -606.64328,752.33711 L -606.64328,749.87056 L -606.64328,747.41585 L -607.21248,746.94152 L -607.78169,746.46718 L -607.78169,745.75567 L -607.78169,745.04416 L -607.02275,744.28522 C -606.60533,743.8678 -606.26381,743.35551 -606.26381,743.14681 L -605.50487,742.26928 L -603.41778,738.39156 L -601.34255,734.52571 L -600.77335,732.10658 C -600.45891,730.77267 -600.19535,729.01578 -600.19227,728.20515 L -600.19227,726.72285 L -600.63104,725.26426 L -601.0698,723.80567 L -602.17264,723.33133 L -603.27548,722.84513 L -603.02645,721.70672 C -602.88821,721.08059 -602.69449,718.51916 -602.59955,716.01466 L -602.43353,711.46101 L -603.8684,709.04189 L -605.31513,706.62276 L -606.33496,706.25515 L -607.35478,705.8994 L -607.14133,704.03762 L -606.91602,702.16398 L -608.12559,699.70928 L -609.33515,697.25458 L -611.88472,694.61015 L -614.42243,691.96571 L -615.4304,691.71668 L -616.45022,691.46765 L -617.79023,692.108 L -619.14209,692.76022 L -620.909,691.76411 L -622.67592,690.77986 L -624.25309,690.77986 L -625.83027,690.77986 z M -903.95852,820.57068 L -903.57905,820.58254 C -903.37034,820.58598 -902.85703,820.83708 -902.44064,821.15174 L -901.6817,821.7328 L -901.1125,822.02927 L -901.1125,822.38502 C -901.1125,822.58547 -901.38714,822.86312 -901.71728,822.9898 C -902.63814,823.34318 -902.91241,823.26593 -903.16401,822.61033 L -903.38932,822.00555 L -903.15215,821.62608 L -902.91498,821.23475 L -903.43676,820.90271 L -903.95852,820.57068 z M -904.94277,820.92643 L -905.35783,822.17157 C -905.58478,822.85175 -905.87011,823.51309 -905.99818,823.64202 C -906.12621,823.77095 -906.79153,823.97801 -907.46862,824.1045 L -908.70191,824.32981 L -909.30669,823.40485 L -909.91147,822.47989 L -909.74546,821.99369 L -909.59129,821.50749 L -907.57535,821.23475 L -906.97057,821.46006 L -906.36579,821.69723 L -905.65428,821.31776 L -904.94277,820.92643 z M -911.73767,823.59458 L -911.40564,823.59458 L -911.06174,823.59458 L -910.872,824.35353 L -910.67041,825.11247 L -911.20405,825.11247 L -911.73767,825.11247 L -911.73767,824.35353 L -911.73767,823.59458 z M -622.66406,956.70577 L -620.16192,958.10507 L -617.65978,959.50436 L -616.22491,961.42544 C -614.519,963.7157 -610.51154,967.8078 -605.16097,972.72654 L -601.23582,976.33152 L -601.24768,979.55702 L -601.24768,982.78251 L -603.20433,985.81828 C -604.27785,987.48795 -607.23751,992.36236 -609.78577,996.64505 C -614.52005,1004.6015 -614.83018,1005.0749 -617.44633,1008.5035 C -618.86647,1010.3646 -623.77705,1016.1047 -624.65628,1016.9348 C -624.87732,1017.1435 -626.04015,1018.1444 -627.25328,1019.1642 L -629.45895,1021.026 L -630.91754,1022.9826 L -632.36428,1024.9512 L -637.96147,1030.5602 L -643.5468,1036.1692 L -645.30185,1037.2247 L -647.05691,1038.2801 L -657.87181,1038.5172 C -663.82002,1038.6486 -672.69963,1038.9286 -677.60429,1039.1339 C -701.71526,1040.1428 -707.84788,1040.3746 -708.72088,1040.3197 C -710.02338,1040.2379 -732.76282,1040.9985 -741.28421,1041.4107 L -748.23327,1041.7546 L -751.7908,1041.7309 L -760.13915,1041.9918 C -764.73074,1042.1346 -772.67117,1042.3809 -777.78454,1042.5373 L -787.08157,1042.8218 L -797.51701,1042.7151 C -803.2565,1042.6549 -809.0038,1042.4833 -810.28857,1042.3476 L -812.62468,1042.1104 L -812.87371,1042.893 L -813.12274,1043.6875 L -816.41939,1043.7112 C -818.23152,1043.7246 -823.47281,1043.9631 -828.0644,1044.2331 C -832.65599,1044.5029 -838.54726,1044.7374 -841.15614,1044.7667 L -845.89952,1044.8259 L -847.14465,1043.6875 L -848.37793,1042.5491 L -850.99865,1042.5491 L -853.61937,1042.5491 L -857.12948,1041.7428 L -860.63958,1040.9363 L -863.8888,1039.2406 C -865.68039,1038.3083 -867.50165,1037.2191 -867.93253,1036.8215 L -868.71519,1036.0981 L -873.24512,1036.0506 L -877.77505,1036.0033 L -876.55363,1035.3392 L -875.56938,1034.5684 L -874.59699,1033.7976 L -874.34796,1033.0149 L -874.09893,1032.2323 L -873.29255,1032.4457 L -872.48618,1032.6591 L -871.69167,1032.4576 L -870.909,1032.256 L -869.98405,1030.5721 L -869.05908,1028.8881 L -868.06298,1028.8881 L -867.06687,1028.8881 L -866.15376,1028.1885 C -865.65601,1027.8066 -864.96646,1027.3927 -864.61216,1027.2636 L -863.95994,1027.0264 L -863.31959,1025.7813 C -862.56775,1024.3142 -862.13267,1023.9749 -861.00719,1023.9669 L -860.18896,1023.955 L -859.67905,1023.4688 C -859.40324,1023.1991 -858.64524,1022.7552 -857.98329,1022.4846 L -856.77372,1021.9865 L -855.39814,1020.5043 L -854.02256,1019.022 L -853.38221,1019.0101 C -853.02538,1019.0017 -851.86284,1018.6176 -850.79706,1018.1563 L -848.85227,1017.3143 L -847.82059,1016.0929 L -846.7889,1014.8596 L -845.95881,1014.9307 C -845.50326,1014.9685 -844.33689,1014.7769 -843.3618,1014.5039 L -841.5949,1014.0058 L -840.75295,1013.1164 C -840.2917,1012.6254 -839.71585,1011.827 -839.47224,1011.3495 L -839.02161,1010.4839 L -837.71718,1010.5669 L -836.41275,1010.6617 L -834.62213,1010.2467 L -832.81963,1009.8435 L -831.39662,1008.7407 C -830.61036,1008.137 -829.75136,1007.4696 -829.49927,1007.2583 C -829.24719,1007.0472 -828.88658,1006.8788 -828.6929,1006.8789 C -828.49925,1006.8789 -826.86277,1006.1105 -825.05235,1005.1713 L -821.7557,1003.4637 L -820.68844,1003.4637 L -819.62117,1003.4637 L -818.15073,1002.847 C -817.34261,1002.5101 -816.2263,1001.9124 -815.67231,1001.5189 C -815.11832,1001.1253 -814.42053,1000.8073 -814.11885,1000.8074 L -813.57336,1000.8074 L -812.0792,999.72825 L -810.58503,998.64913 L -809.22131,998.38824 L -807.86944,998.13922 L -807.18165,997.36842 C -806.80161,996.9485 -805.59357,996.09578 -804.50164,995.47107 L -802.50942,994.33265 L -800.3749,992.03211 L -798.24038,989.71971 L -798.01507,988.61688 L -797.80161,987.51404 L -796.99524,987.35989 C -796.55228,987.27594 -793.54206,987.01965 -790.30707,986.79067 C -783.39907,986.30173 -772.11001,984.85363 -764.88253,983.51774 C -748.05825,980.40809 -741.9454,979.30879 -737.37091,978.59648 L -733.57621,978.00356 L -727.88415,976.53311 C -717.30872,973.78203 -707.65039,971.79719 -702.03271,971.23238 C -697.31714,970.75831 -689.65028,969.45509 -684.05529,968.1729 C -677.00124,966.55631 -676.21683,966.41336 -666.97911,965.11341 C -665.41379,964.89317 -661.57166,964.18833 -658.44103,963.5481 C -651.90791,962.21202 -645.83979,961.09564 -637.19067,959.64666 C -633.85133,959.08721 -629.2216,958.1974 -626.89752,957.66631 L -622.66406,956.70577 z M -575.43182,1011.8239 L -575.09979,1012.0254 L -574.76774,1012.2389 L -574.76774,1015.832 L -574.76774,1019.4251 L -575.28952,1020.6466 C -575.57492,1021.3182 -576.25809,1022.3507 -576.8074,1022.9352 L -577.80351,1023.9906 L -579.09609,1024.5361 C -579.8088,1024.8339 -580.90595,1025.1173 -581.52706,1025.1646 L -582.65362,1025.2476 L -582.46389,1025.7456 L -582.27415,1026.2319 L -583.7446,1026.2082 L -585.20319,1026.1726 L -587.38514,1025.4137 L -589.5671,1024.6547 L -589.28249,1024.1448 C -589.12543,1023.8688 -587.84761,1022.4353 -586.43647,1020.9548 L -583.86318,1018.263 L -583.44814,1018.263 C -583.05288,1018.263 -581.46647,1016.9949 -578.75218,1014.5039 C -578.12607,1013.9292 -577.12126,1013.0927 -576.5228,1012.6421 L -575.43182,1011.8239 z"
       id="path2523"
       sodipodi:nodetypes="ccccccsssccccccccsscccccccccccccccccssssssccccccccccccccccccccccccccccccccccccsccccccccccccccccccscccccccccsccccccccccccsccccccccccccccccccccccccccccccccccccccccssccccccccccccccccccccscccccccccccccccccccccccccccccccccccccccccccccccccscccccccccccccccccccsscccssssssssccccccccccccsscccscccccccccsssccccccccccccccssccccccccccccccccccsccccccccccccccccccccccccccccccccsccccccccccccccccccccccccccccccccccccccccccccccccccccccccccccccccccccscccsscccccccccccccccscccssssccccccscccccccccccccssccssssccccccccccccccccccccccccsccccccccccccccsssssssssssssssssccccccccccccccscccccccccssccccccccccccccccccccccccccccsccccccccccsssccccccsssccccccccccccccccsccccccccscccscccccccccccccccccccscccccccccccccccccccccccccccccccccccccccccccccccccccccccccccsccccccccscccccccccccccccccccccccccccccssscccccccccssccccccccccccscccccccccccccccccccccccccccccccccccccccccccccccccccccsscccccsccccccccccccccsscccssssscccccccccccccccccccccccscc" />
  </g>
</svg>
