<?xml version="1.0" encoding="UTF-8" standalone="no"?> 
<svg xmlns="http://www.w3.org/2000/svg" width="375" height="228.75">
  <g style="fill:#fc0;stroke:#806600;stroke-opacity:1;stroke-width:2;stroke-dasharray:none">
    <path d="M6.448 223.092c-1.484-1.886-2.698-4.368-2.698-5.515 0-2.499 6.013-8.258 13.75-13.172 7.671-4.871 14.648-12.536 18.235-20.03 3.766-7.87 3.73-10.689-.253-20-7.785-18.198-9.445-25.396-10.38-45-.5-10.498-1.558-19.976-2.402-21.535-.83-1.532-4.27-6.434-7.646-10.894-8.166-10.789-9.185-16.712-4.515-26.256 6.058-12.383 18.61-23.891 28.581-26.205 1.922-.446 4.124-.423 4.893.053.77.475 2.966.987 4.883 1.138 4.789.377 15.614 8.592 19.52 14.813C74 59.382 86.203 73.6 92.145 78.136c7.2 5.497 12.75 5.857 16.515 1.07 3.65-4.64 3.242-9.324-1.784-20.456-3.045-6.743-4.375-11.512-4.375-15.684 0-5.454.497-6.47 5.507-11.271 8.924-8.551 16.022-10.51 45.357-12.52 28.28-1.936 34.112-3.369 51.138-12.559 12.597-6.8 17.737-7.17 23.233-1.674 3.61 3.61 3.77 4.202 3.31 12.314-1.045 18.517-14.233 36.142-32.461 43.385-15.871 6.307-23.972 10.93-26.985 15.4-5.403 8.019-2.896 16.371 5.687 18.943 3.914 1.172 7.687.848 22.663-1.95 12.324-2.301 19.767-3.1 23.697-2.545 10.754 1.52 24.467 5.845 35.796 11.29 13.76 6.612 28.226 19.284 46.373 40.621 21.755 25.58 36.983 38.75 44.802 38.75 2.166 0 6.512.877 9.659 1.95 11.81 4.024 12.96 11.248 1.767 11.097-4.457-.06-6.967-.98-11.09-4.066-2.93-2.194-10.024-7.105-15.764-10.913s-19.802-14.676-31.25-24.152-23.064-18.746-25.814-20.6c-6.829-4.603-13.555-6.336-17.182-4.426-6.287 3.311-6.2 7.52.442 21.176 5.673 11.666 8 18.662 9.33 28.059.486 3.438 2.212 10.709 3.835 16.158 3.864 12.978 3.784 17.034-.436 22.049-4.767 5.666-11.973 8.608-21.163 8.64-9.24.034-12.688-2.227-13.778-9.038-.603-3.765-.102-5.67 2.538-9.66 4.17-6.302 4.239-10.594.212-13.233-4.092-2.68-10.506-.641-16.764 5.33-6.623 6.319-23.9 19.68-28.534 22.068-2.2 1.134-6.52 2.061-9.597 2.061-4.557 0-6.078-.612-8.187-3.294-5.007-6.364-2.185-11.409 10.018-17.913 9.472-5.049 16.648-11.342 21.35-18.725 6.365-9.99 3.91-22.17-5.466-27.12-7.837-4.139-18.141-2.816-58.728 7.54-20.41 5.208-43.62 10.877-51.576 12.597-7.955 1.72-16.774 4.306-19.597 5.746s-13.375 10.604-23.449 20.364c-10.073 9.76-20.555 18.82-23.292 20.134-2.737 1.313-8.121 2.625-11.966 2.915-6.432.486-7.205.254-9.687-2.902z" style="fill-opacity:1;fill:#fc0;stroke:#806600;stroke-opacity:1;stroke-width:2;stroke-dasharray:none"/>
    <path d="M6.448 223.092c-1.484-1.886-2.698-4.368-2.698-5.515 0-2.499 6.013-8.258 13.75-13.172 7.671-4.871 14.648-12.536 18.235-20.03 3.766-7.87 3.73-10.689-.253-20-7.785-18.198-9.445-25.396-10.38-45-.5-10.498-1.558-19.976-2.402-21.535-.83-1.532-4.27-6.434-7.646-10.894-8.166-10.789-9.185-16.712-4.515-26.256 6.058-12.383 18.61-23.891 28.581-26.205 7.388-1.715 22.721 5.532 29.297 16.004C74 59.382 86.202 73.6 92.144 78.136c7.2 5.497 12.75 5.857 16.515 1.07 3.65-4.64 3.242-9.324-1.784-20.456-3.045-6.743-4.375-11.512-4.375-15.684 0-5.454.497-6.47 5.507-11.271 8.924-8.551 16.022-10.51 45.357-12.52 28.28-1.936 34.112-3.369 51.138-12.559 12.597-6.8 17.737-7.17 23.233-1.674 3.61 3.61 3.77 4.202 3.31 12.314-1.045 18.517-14.233 36.142-32.461 43.385-15.871 6.307-23.972 10.93-26.985 15.4-5.403 8.019-2.896 16.371 5.687 18.943 3.914 1.172 7.687.848 22.663-1.95 12.324-2.301 19.767-3.1 23.697-2.545 10.754 1.52 24.467 5.845 35.796 11.29 13.76 6.612 28.226 19.284 46.373 40.621 21.755 25.58 36.983 38.75 44.802 38.75 2.166 0 6.512.877 9.659 1.95 11.81 4.024 12.96 11.248 1.767 11.097-4.457-.06-6.967-.98-11.09-4.066-2.93-2.194-10.024-7.105-15.764-10.913s-19.802-14.676-31.25-24.152-23.064-18.746-25.814-20.6c-6.829-4.603-13.555-6.336-17.182-4.426-6.287 3.311-6.2 7.52.442 21.176 5.673 11.666 8 18.662 9.33 28.059.486 3.438 2.212 10.709 3.835 16.158 3.864 12.978 3.784 17.034-.436 22.049-4.767 5.666-11.973 8.608-21.163 8.64-9.24.034-12.688-2.227-13.778-9.038-.603-3.765-.102-5.67 2.538-9.66 4.17-6.302 4.239-10.594.212-13.233-4.092-2.68-10.506-.641-16.764 5.33-6.623 6.319-23.9 19.68-28.534 22.068-2.2 1.134-6.52 2.061-9.597 2.061-4.557 0-6.078-.612-8.187-3.294-5.007-6.364-2.185-11.409 10.018-17.913 9.472-5.049 16.648-11.342 21.35-18.725 6.365-9.99 3.91-22.17-5.466-27.12-7.837-4.139-18.141-2.816-58.728 7.54-20.41 5.208-43.62 10.877-51.576 12.597-7.955 1.72-16.774 4.306-19.597 5.746s-13.375 10.604-23.449 20.364c-10.073 9.76-20.555 18.82-23.292 20.134-2.737 1.313-8.121 2.625-11.966 2.915-6.432.486-7.205.254-9.687-2.902z" style="fill:#fc0;fill-opacity:1;stroke:#806600;stroke-width:2;stroke-dasharray:none;stroke-opacity:1"/>
  </g>
</svg>
