<?xml version="1.0" encoding="UTF-8" standalone="no"?> 
<svg xmlns="http://www.w3.org/2000/svg" width="50.908" height="135.669" viewBox="0 0 38.186 101.765">
  <g style="display:inline;fill:#fc0;stroke:#806600;stroke-opacity:1;stroke-width:.75009518;stroke-dasharray:none">
    <path d="M27.371-.693c-3.927.366-5.229 3.538-4.963 6.778s3.685 6.972.135 8.956c-1.577 1.413-3.154 3.073-5.207 3.54-2.679.607-4.287 3.054-4.607 6.419 1.388 4.824.365 9.285 1.773 12.824s3.696 3.831 3.986 5.076c.317 7.637 2.341 17.535.856 24.93 1.172.184.93.444.894.729-.036.284-.48.381-1.088.527.847 7.684-.278 12.136 1.983 18.771v3.592h-1.07v1.524s-7.31-.005-8.565 0c0 0 .68 2.159-1.523 3.027.008 1.1 0 2.719 0 2.719H8.406v2.353h38.186V98.72h-1.57s-.007-1.619.001-2.719c-2.203-.868-1.523-3.027-1.523-3.027-1.255-.005-8.564 0-8.564 0V91.45h-1.073v-3.592c2.261-6.635 1.138-11.087 1.985-18.771-.608-.146-1.054-.243-1.09-.527s-.278-.545.894-.729c-.845-8.058.902-17.493.858-24.93.29-1.245 2.579-1.537 3.986-5.076s.385-8 1.774-12.824c-.32-3.365-1.931-5.812-4.61-6.42-2.053-.466-3.469-2.6-5.369-3.884-3.118-2.472-.61-5.364.373-8.578 0-5.01-2.154-6.483-5.293-6.811z" style="display:inline;opacity:1;fill:#fc0;stroke:#806600;stroke-opacity:1;stroke-width:.75009518;stroke-dasharray:none" transform="translate(-8.406 .693)"/>
  </g>
</svg>
